<svg width="512" height="512" viewBox="0 0 512 512" fill="none" xmlns="http://www.w3.org/2000/svg">
<g clip-path="url(#clip0_6_2)">
<rect width="512" height="512" rx="125" fill="#CA3535"/>
<path d="M268.97 181.21C276.89 183.85 281.84 191.44 281.84 199.36C281.84 201.34 281.51 203.65 280.85 205.63L240.26 321.13C237.62 328.72 230.36 334 222.11 334C213.86 334 206.6 328.72 203.96 321.13L181.52 257.11L159.08 321.13C156.44 328.72 149.18 334 140.93 334C132.68 334 125.42 328.72 122.78 321.13L82.19 205.63C81.53 203.65 81.2 201.34 81.2 199.36C81.2 191.11 86.15 183.85 94.07 181.21C96.05 180.55 98.36 180.22 100.67 180.22C108.59 180.22 115.85 184.84 118.49 192.76L140.93 256.45L163.04 192.76C165.68 184.51 172.94 180.22 180.86 179.89C180.86 179.89 181.19 179.89 182.18 179.89C190.1 180.22 197.03 185.17 199.67 192.76L222.11 256.45L244.55 192.76C247.19 184.84 254.45 180.22 262.37 180.22C264.68 180.22 266.66 180.55 268.97 181.21ZM367.769 334C365.129 334 363.149 334 361.829 333.67C341.699 332.68 324.209 324.1 312.329 309.25C301.439 295.39 295.829 277.24 295.829 256.78C295.829 214.21 326.189 179.89 363.149 179.89C381.629 179.89 398.789 187.48 411.329 201.67C423.869 215.2 430.469 233.68 430.469 253.48C430.469 264.04 421.889 272.95 411.329 272.95H336.419C339.719 283.51 346.979 294.73 363.809 295.39H365.789C370.739 295.39 379.979 295.39 388.229 289.45C391.529 287.47 395.159 286.48 398.789 286.48C405.059 286.48 411.329 289.45 414.959 295.06C417.269 298.03 418.259 301.66 418.259 305.29C418.259 311.56 414.959 318.16 409.349 321.79C393.509 332.35 377.009 334 367.769 334ZM340.049 234.34H387.899C382.949 224.44 374.039 218.17 363.149 218.17C353.909 218.17 345.329 224.77 340.049 234.34Z" fill="white"/>
<rect x="84" y="179" width="196" height="41" rx="20.5" fill="white"/>
<rect x="124" y="214" width="112" height="42" fill="white"/>
<rect x="338" y="214" width="54" height="31" fill="white"/>
</g>
<defs>
<clipPath id="clip0_6_2">
<rect width="512" height="512" fill="white"/>
</clipPath>
</defs>
</svg>
