<svg width="168" height="168" viewBox="0 0 168 168" fill="none" xmlns="http://www.w3.org/2000/svg">
<g clip-path="url(#clip0_6_2)">
<rect width="168" height="168" rx="20" fill="#CA3535"/>
<g clip-path="url(#clip1_6_2)">
<g filter="url(#filter0_d_6_2)">
<mask id="mask0_6_2" style="mask-type:alpha" maskUnits="userSpaceOnUse" x="16" y="56" width="136" height="60">
<path d="M88.952 56.736C92.024 57.76 93.944 60.704 93.944 63.776C93.944 64.544 93.816 65.44 93.56 66.208L77.816 111.008C76.792 113.952 73.976 116 70.776 116C67.576 116 64.76 113.952 63.736 111.008L55.032 86.176L46.328 111.008C45.304 113.952 42.488 116 39.288 116C36.088 116 33.272 113.952 32.248 111.008L16.504 66.208C16.248 65.44 16.12 64.544 16.12 63.776C16.12 60.576 18.04 57.76 21.112 56.736C21.88 56.48 22.776 56.352 23.672 56.352C26.744 56.352 29.56 58.144 30.584 61.216L39.288 85.92L47.864 61.216C48.888 58.016 51.704 56.352 54.776 56.224C54.776 56.224 54.904 56.224 55.288 56.224C58.36 56.352 61.048 58.272 62.072 61.216L70.776 85.92L79.48 61.216C80.504 58.144 83.32 56.352 86.392 56.352C87.288 56.352 88.056 56.48 88.952 56.736ZM127.274 116C126.25 116 125.482 116 124.97 115.872C117.162 115.488 110.378 112.16 105.77 106.4C101.546 101.024 99.37 93.984 99.37 86.048C99.37 69.536 111.146 56.224 125.482 56.224C132.65 56.224 139.306 59.168 144.17 64.672C149.034 69.92 151.594 77.088 151.594 84.768C151.594 88.864 148.266 92.32 144.17 92.32H115.114C116.394 96.416 119.21 100.768 125.738 101.024H126.506C128.426 101.024 132.01 101.024 135.21 98.72C136.49 97.952 137.898 97.568 139.306 97.568C141.738 97.568 144.17 98.72 145.578 100.896C146.474 102.048 146.858 103.456 146.858 104.864C146.858 107.296 145.578 109.856 143.402 111.264C137.258 115.36 130.858 116 127.274 116ZM116.522 77.344H135.082C133.162 73.504 129.706 71.072 125.482 71.072C121.898 71.072 118.57 73.632 116.522 77.344Z" fill="white"/>
<rect x="17" y="56" width="76.5" height="19" rx="9.5" fill="white"/>
<rect x="31" y="62" width="46" height="24" fill="white"/>
<rect x="115" y="70" width="24" height="12" fill="white"/>
</mask>
<g mask="url(#mask0_6_2)">
<g filter="url(#filter1_f_6_2)">
<path d="M88.952 56.736C92.024 57.76 93.944 60.704 93.944 63.776C93.944 64.544 93.816 65.44 93.56 66.208L77.816 111.008C76.792 113.952 73.976 116 70.776 116C67.576 116 64.76 113.952 63.736 111.008L55.032 86.176L46.328 111.008C45.304 113.952 42.488 116 39.288 116C36.088 116 33.272 113.952 32.248 111.008L16.504 66.208C16.248 65.44 16.12 64.544 16.12 63.776C16.12 60.576 18.04 57.76 21.112 56.736C21.88 56.48 22.776 56.352 23.672 56.352C26.744 56.352 29.56 58.144 30.584 61.216L39.288 85.92L47.864 61.216C48.888 58.016 51.704 56.352 54.776 56.224C54.776 56.224 54.904 56.224 55.288 56.224C58.36 56.352 61.048 58.272 62.072 61.216L70.776 85.92L79.48 61.216C80.504 58.144 83.32 56.352 86.392 56.352C87.288 56.352 88.056 56.48 88.952 56.736ZM127.274 116C126.25 116 125.482 116 124.97 115.872C117.162 115.488 110.378 112.16 105.77 106.4C101.546 101.024 99.37 93.984 99.37 86.048C99.37 69.536 111.146 56.224 125.482 56.224C132.65 56.224 139.306 59.168 144.17 64.672C149.034 69.92 151.594 77.088 151.594 84.768C151.594 88.864 148.266 92.32 144.17 92.32H115.114C116.394 96.416 119.21 100.768 125.738 101.024H126.506C128.426 101.024 132.01 101.024 135.21 98.72C136.49 97.952 137.898 97.568 139.306 97.568C141.738 97.568 144.17 98.72 145.578 100.896C146.474 102.048 146.858 103.456 146.858 104.864C146.858 107.296 145.578 109.856 143.402 111.264C137.258 115.36 130.858 116 127.274 116ZM116.522 77.344H135.082C133.162 73.504 129.706 71.072 125.482 71.072C121.898 71.072 118.57 73.632 116.522 77.344Z" fill="white"/>
<rect x="17" y="56" width="76.5" height="19" rx="9.5" fill="white"/>
<rect x="31" y="62" width="46" height="24" fill="white"/>
<rect x="115" y="70" width="24" height="12" fill="white"/>
</g>
</g>
</g>
</g>
</g>
<defs>
<filter id="filter0_d_6_2" x="12.12" y="56" width="143.474" height="68" filterUnits="userSpaceOnUse" color-interpolation-filters="sRGB">
<feFlood flood-opacity="0" result="BackgroundImageFix"/>
<feColorMatrix in="SourceAlpha" type="matrix" values="0 0 0 0 0 0 0 0 0 0 0 0 0 0 0 0 0 0 127 0" result="hardAlpha"/>
<feOffset dy="4"/>
<feGaussianBlur stdDeviation="2"/>
<feComposite in2="hardAlpha" operator="out"/>
<feColorMatrix type="matrix" values="0 0 0 0 0 0 0 0 0 0 0 0 0 0 0 0 0 0 0.25 0"/>
<feBlend mode="normal" in2="BackgroundImageFix" result="effect1_dropShadow_6_2"/>
<feBlend mode="normal" in="SourceGraphic" in2="effect1_dropShadow_6_2" result="shape"/>
</filter>
<filter id="filter1_f_6_2" x="12.12" y="52" width="143.474" height="68" filterUnits="userSpaceOnUse" color-interpolation-filters="sRGB">
<feFlood flood-opacity="0" result="BackgroundImageFix"/>
<feBlend mode="normal" in="SourceGraphic" in2="BackgroundImageFix" result="shape"/>
<feGaussianBlur stdDeviation="2" result="effect1_foregroundBlur_6_2"/>
</filter>
<clipPath id="clip0_6_2">
<rect width="168" height="168" fill="white"/>
</clipPath>
<clipPath id="clip1_6_2">
<rect width="146" height="153" fill="white" transform="translate(11 -6)"/>
</clipPath>
</defs>
</svg>
