<svg width="1496" height="281" viewBox="0 0 1496 281" fill="none" xmlns="http://www.w3.org/2000/svg">
<g clip-path="url(#clip0_10_32)">
<path d="M306.824 277.88V70.52H422.28C428.765 70.52 434.653 72.1413 439.944 75.384C445.405 78.6267 449.672 82.8933 452.744 88.184C455.987 93.4747 457.608 99.3627 457.608 105.848V183.672C457.608 190.157 455.987 196.045 452.744 201.336C449.672 206.627 445.405 210.893 439.944 214.136C434.653 217.379 428.765 219 422.28 219H340.36V277.88H306.824ZM343.432 185.464H421C421.853 185.464 422.536 185.208 423.048 184.696C423.731 184.013 424.072 183.245 424.072 182.392V107.128C424.072 106.275 423.731 105.592 423.048 105.08C422.536 104.397 421.853 104.056 421 104.056H343.432C342.579 104.056 341.811 104.397 341.128 105.08C340.616 105.592 340.36 106.275 340.36 107.128V182.392C340.36 183.245 340.616 184.013 341.128 184.696C341.811 185.208 342.579 185.464 343.432 185.464ZM511.384 219C504.899 219 499.011 217.379 493.72 214.136C488.429 210.893 484.163 206.627 480.92 201.336C477.677 196.045 476.056 190.157 476.056 183.672V105.848C476.056 99.3627 477.677 93.4747 480.92 88.184C484.163 82.8933 488.429 78.6267 493.72 75.384C499.011 72.1413 504.899 70.52 511.384 70.52H591.512C597.997 70.52 603.885 72.1413 609.176 75.384C614.637 78.6267 618.904 82.8933 621.976 88.184C625.219 93.4747 626.84 99.3627 626.84 105.848V161.656H509.592V182.392C509.592 183.245 509.848 184.013 510.36 184.696C511.043 185.208 511.811 185.464 512.664 185.464H626.84V219H511.384ZM509.592 131.448H593.304V107.128C593.304 106.275 592.963 105.592 592.28 105.08C591.768 104.397 591.085 104.056 590.232 104.056H512.664C511.811 104.056 511.043 104.397 510.36 105.08C509.848 105.592 509.592 106.275 509.592 107.128V131.448ZM654.074 219V70.52H769.53C776.015 70.52 781.903 72.1413 787.194 75.384C792.655 78.6267 796.922 82.8933 799.994 88.184C803.237 93.4747 804.858 99.3627 804.858 105.848V219H771.322V107.128C771.322 106.275 770.981 105.592 770.298 105.08C769.786 104.397 769.103 104.056 768.25 104.056H690.682C689.829 104.056 689.061 104.397 688.378 105.08C687.866 105.592 687.61 106.275 687.61 107.128V219H654.074ZM833.604 219V34.68H974.916C981.401 34.68 987.289 36.3013 992.58 39.544C998.041 42.7867 1002.39 47.1387 1005.64 52.6C1008.88 57.8907 1010.5 63.7787 1010.5 70.264V106.36C1010.5 108.579 1010.33 110.712 1009.99 112.76C1009.65 114.808 1009.05 116.771 1008.2 118.648C1011.1 122.573 1013.4 126.669 1015.11 130.936C1016.99 135.203 1017.92 139.469 1017.92 143.736V183.416C1017.92 189.901 1016.3 195.875 1013.06 201.336C1009.82 206.627 1005.47 210.893 1000 214.136C994.543 217.379 988.569 219 982.084 219H833.604ZM870.468 184.952H980.548C981.401 184.952 982.169 184.696 982.852 184.184C983.535 183.501 983.876 182.733 983.876 181.88V145.272C983.876 144.419 983.535 143.736 982.852 143.224C982.169 142.541 981.401 142.2 980.548 142.2H870.468C869.615 142.2 868.847 142.541 868.164 143.224C867.652 143.736 867.396 144.419 867.396 145.272V181.88C867.396 182.733 867.652 183.501 868.164 184.184C868.847 184.696 869.615 184.952 870.468 184.952ZM870.468 108.152H973.38C974.233 108.152 974.916 107.896 975.428 107.384C975.94 106.701 976.196 105.933 976.196 105.08V71.8C976.196 70.9467 975.94 70.264 975.428 69.752C974.916 69.0693 974.233 68.728 973.38 68.728H870.468C869.615 68.728 868.847 69.0693 868.164 69.752C867.652 70.264 867.396 70.9467 867.396 71.8V105.08C867.396 105.933 867.652 106.701 868.164 107.384C868.847 107.896 869.615 108.152 870.468 108.152ZM1067.08 274.04V240.248H1156.43C1157.28 240.248 1157.96 239.907 1158.48 239.224C1159.16 238.712 1159.5 238.029 1159.5 237.176V219H1077.58C1071.27 219 1065.38 217.379 1059.92 214.136C1054.63 210.893 1050.36 206.627 1047.12 201.336C1043.87 196.045 1042.25 190.157 1042.25 183.672V71.032H1075.79V182.392C1075.79 183.245 1076.04 184.013 1076.56 184.696C1077.24 185.208 1078.01 185.464 1078.86 185.464H1156.43C1157.28 185.464 1157.96 185.208 1158.48 184.696C1159.16 184.013 1159.5 183.245 1159.5 182.392V71.032H1193.04V238.712C1193.04 245.197 1191.5 251.085 1188.43 256.376C1185.36 261.837 1181.09 266.104 1175.63 269.176C1170.34 272.419 1164.45 274.04 1157.96 274.04H1067.08ZM1255.65 219C1249.16 219 1243.27 217.379 1237.98 214.136C1232.69 210.893 1228.42 206.627 1225.18 201.336C1221.94 196.045 1220.32 190.157 1220.32 183.672V24.952H1253.85V70.52H1311.71V104.056H1253.85V182.392C1253.85 183.245 1254.11 184.013 1254.62 184.696C1255.3 185.208 1256.07 185.464 1256.93 185.464H1311.71V219H1255.65ZM1367.38 219C1360.9 219 1355.01 217.379 1349.72 214.136C1344.43 210.893 1340.16 206.627 1336.92 201.336C1333.68 196.045 1332.06 190.157 1332.06 183.672V105.848C1332.06 99.3627 1333.68 93.4747 1336.92 88.184C1340.16 82.8933 1344.43 78.6267 1349.72 75.384C1355.01 72.1413 1360.9 70.52 1367.38 70.52H1447.51C1454 70.52 1459.89 72.1413 1465.18 75.384C1470.64 78.6267 1474.9 82.8933 1477.98 88.184C1481.22 93.4747 1482.84 99.3627 1482.84 105.848V161.656H1365.59V182.392C1365.59 183.245 1365.85 184.013 1366.36 184.696C1367.04 185.208 1367.81 185.464 1368.66 185.464H1482.84V219H1367.38ZM1365.59 131.448H1449.3V107.128C1449.3 106.275 1448.96 105.592 1448.28 105.08C1447.77 104.397 1447.09 104.056 1446.23 104.056H1368.66C1367.81 104.056 1367.04 104.397 1366.36 105.08C1365.85 105.592 1365.59 106.275 1365.59 107.128V131.448Z" fill="white"/>
<rect x="40" y="40" width="200" height="200" rx="50" stroke="white" stroke-width="20"/>
<path d="M92 10C92 4.47715 96.4772 0 102 0C107.523 0 112 4.47715 112 10V50H92V10Z" fill="white"/>
<path d="M168 10C168 4.47715 172.477 0 178 0C183.523 0 188 4.47715 188 10V50H168V10Z" fill="white"/>
<path d="M188 270C188 275.523 183.523 280 178 280C172.477 280 168 275.523 168 270V230H188V270Z" fill="white"/>
<path d="M112 270C112 275.523 107.523 280 102 280C96.4772 280 92 275.523 92 270V230H112V270Z" fill="white"/>
<path d="M10 188C4.47715 188 0 183.523 0 178C0 172.477 4.47715 168 10 168H50V188H10Z" fill="white"/>
<path d="M10 112C4.47715 112 0 107.523 0 102C0 96.4772 4.47715 92 10 92H50V112H10Z" fill="white"/>
<path d="M270 92C275.523 92 280 96.4772 280 102C280 107.523 275.523 112 270 112H230V92H270Z" fill="white"/>
<path d="M270 168C275.523 168 280 172.477 280 178C280 183.523 275.523 188 270 188H230V168H270Z" fill="white"/>
<circle cx="101.5" cy="99.5" r="12.5" fill="white"/>
<circle cx="177.5" cy="99.5" r="12.5" fill="white"/>
<path d="M101 153C101 204 178 209.5 178 153" stroke="white" stroke-width="20"/>
</g>
<defs>
<clipPath id="clip0_10_32">
<rect width="1496" height="281" fill="white"/>
</clipPath>
</defs>
</svg>
